<svg width="80" height="129" viewBox="0 0 80 129" fill="none" xmlns="http://www.w3.org/2000/svg">
<path d="M14.1391 47.9391C14.4058 48.6726 14.6947 57.2462 14.8058 61.4413L19.1399 59.7744C19.0009 55.3292 19.3066 47.2224 19.6399 46.3556C19.9733 45.4888 22.5571 44.383 23.8073 43.9385L12.1387 46.3556C12.6944 46.5778 13.8724 47.2057 14.1391 47.9391Z" fill="url(#paint0_linear_301_44)"/>
<path d="M7.72138 46.0222C7.17963 45.4804 7.2213 43.7718 8.4715 42.7717C9.22162 41.8637 12.5555 41.3548 16.6395 40.8547C20.7234 40.3546 26.7244 41.2714 27.3912 42.1049C28.0579 42.9384 27.3912 43.9385 25.8076 44.1052C24.224 44.2719 14.4725 47.0223 12.5555 47.2724C10.6385 47.5224 8.26313 46.5639 7.72138 46.0222Z" fill="url(#paint1_diamond_301_44)"/>
<path d="M12.3384 97.8635C11.6706 96.528 11.5455 94.9005 12.3384 94.358C13.9048 93.2862 14.4982 93.4146 15.6937 93.7467C17.1961 94.164 18.3725 97.8074 17.3062 98.4472C16.4728 98.9473 16.7203 98.8233 15.4683 99.491C14.6811 99.9109 13.0061 99.1989 12.3384 97.8635Z" fill="url(#paint2_radial_301_44)"/>
<path d="M20.4454 124.945C18.8802 126.382 16.7029 127.19 15.6503 126.318C13.5708 124.595 13.514 123.733 13.5 121.968C13.4825 119.75 18.0054 116.713 19.2981 117.921C20.3086 118.866 20.0422 118.576 21.4458 120.027C22.3284 120.939 22.0106 123.509 20.4454 124.945Z" fill="url(#paint3_radial_301_44)"/>
<path d="M62.0633 123.988C61.277 125.961 60.1027 127.201 58.7448 126.534C57.6237 125.983 57.0755 125.782 55.5731 124.906C54.0707 124.03 55.6983 118.104 58.0771 117.311C58.5361 117.311 60.1437 117.937 62.0633 118.897C63.1987 119.464 62.8497 122.014 62.0633 123.988Z" fill="url(#paint4_radial_301_44)"/>
<path d="M60.5892 95.0897C60.5405 93.4397 60.9951 92.1935 62.1694 92.2498C63.1387 92.2963 63.5915 92.2699 64.9334 92.4309C66.2752 92.5919 66.9446 97.3198 65.4933 98.6197C65.166 98.7614 63.8265 98.8115 62.1613 98.7199C61.1765 98.6657 60.6379 96.7396 60.5892 95.0897Z" fill="url(#paint5_radial_301_44)"/>
<path d="M12.5555 91.1127C14.1391 89.6958 18.6398 89.8625 24.1407 89.9458C31.9475 89.8069 48.4945 89.5291 52.2285 89.5291C56.8959 89.5291 62.8135 89.279 64.3137 89.9458C65.8139 90.6126 65.3139 92.3629 64.8971 92.6963C64.4804 93.0296 57.5385 93.4765 54.2046 93.9765C50.8707 94.4766 44.7732 96.2477 45.2821 96.693C45.9489 97.2764 59.0524 110.735 61.1629 113.472C63.1502 116.05 62.5634 117.867 61.4799 118.617C60.3964 119.367 58.9986 118.208 57.3807 116.335C55.3956 114.036 43.9557 102.412 40.4552 100.245C39.8283 100.364 38.7135 100.398 38.1567 100.245C37.3553 100.837 34.6423 103.281 31.3085 106.865C27.9746 110.449 22.5571 117.033 21.1402 118.617C19.7233 120.201 18.2231 120.117 17.3896 118.617C16.5561 117.117 19.0565 112.616 24.1407 106.865C29.2248 101.114 32.8087 96.9469 32.9754 96.5302C33.1421 96.1135 28.6414 95.6967 24.9741 94.9466C21.3069 94.1965 14.1391 94.0298 13.3056 93.9465C12.4721 93.8631 10.9719 92.5296 12.5555 91.1127Z" fill="url(#paint6_radial_301_44)"/>
<path d="M32.9799 96.5082C33.6664 95.7228 34.2738 95.0588 34.809 94.5299C36.9977 92.3668 17.3045 92.0209 14.4667 92.0209C13.7402 92.0209 12.3171 91.731 12.615 91.0613C14.1487 89.7838 18.1683 89.8491 23.1474 89.93C23.4745 89.9354 23.8057 89.9407 24.1407 89.9458C31.9475 89.8069 48.4945 89.5291 52.2285 89.5291C53.227 89.5291 54.2827 89.5176 55.3402 89.5062C58.9536 89.467 62.5871 89.4276 64.0267 89.8438C64.3803 90.0923 64.6819 90.3843 64.9211 90.7272C65.3197 91.2984 62.7605 91.2698 59.8651 91.2373C57.7419 91.2135 55.438 91.1877 53.9873 91.395L53.8176 91.4192C50.2983 91.9216 44.6885 92.7225 43.9715 93.9824C43.6675 94.5165 44.0913 95.2718 45.2701 96.5793C45.2432 96.6232 45.246 96.6614 45.2821 96.693C45.9489 97.2764 59.0524 110.735 61.1629 113.472C61.1766 113.49 61.1903 113.508 61.2038 113.526C61.9976 114.859 62.1083 115.831 61.3739 116.476C60.6611 117.103 59.2251 115.458 57.6332 113.635C57.0146 112.927 56.3725 112.191 55.74 111.552C55.1172 110.922 54.3118 110.078 53.3889 109.111C48.8706 104.378 41.5351 96.693 39.0053 96.693C37.6808 96.693 35.6287 99.0274 33.2663 101.715C32.5025 102.583 31.7063 103.489 30.8917 104.365C28.7844 106.63 25.778 110.494 23.4932 113.43C22.1634 115.139 21.078 116.534 20.5567 117.117C19.772 117.994 18.5494 117.704 18.223 117.117C17.8495 116.444 17.9782 115.471 18.6916 114.083C19.8587 112.093 21.7026 109.623 24.1407 106.865C29.2248 101.114 32.8087 96.9469 32.9754 96.5302C32.9783 96.5229 32.9798 96.5155 32.9799 96.5082Z" fill="url(#paint7_radial_301_44)"/>
<path d="M49.0613 55.5237V65.2752L54.1454 67.6089L54.5622 57.774L49.0613 55.5237Z" fill="#060404"/>
<path d="M57.6606 88.0174C56.6494 88.0174 51.0616 86.9453 51.0616 86.9453L54.1454 82.0279L60.8965 85.6951C60.8965 85.6951 58.6718 88.0174 57.6606 88.0174Z" fill="#060404"/>
<path d="M63.3333 0.195187C54.1781 0.361645 49.3947 0.195187 44.3571 5.1889C40.8333 8.68208 36.3103 22.0972 35.0591 27.5192C34.0603 31.8471 31.0406 43.9734 34.3697 49.4665C37.6988 54.9596 41.8101 55.0236 51.0154 58.9546C60.3145 62.9256 70.4406 62.7422 72.4884 51.1311C74.5653 39.3545 81.353 17.0911 79.1467 8.18513C77.8503 2.95206 72.4884 0.0287288 63.3333 0.195187Z" fill="url(#paint8_radial_301_44)"/>
<path d="M45.144 62.6915C36.726 59.1076 31.8085 58.5242 27.2245 58.3575C23.995 58.1474 18.223 58.9546 13.4723 60.3578C8.72154 61.761 2.80393 65.3586 1.05365 70.1927C-0.696623 75.0268 6.30449 82.2779 12.2221 86.7786C18.1397 91.2794 28.3913 95.53 34.3697 95.53C41.7268 95.53 49.1446 91.6961 57.646 86.1119C65.5851 80.897 68.4329 78.4656 65.9806 72.7764C63.5284 67.0872 53.562 66.2754 45.144 62.6915Z" fill="url(#paint9_radial_301_44)"/>
<g filter="url(#filter0_i_301_44)">
<path d="M61.3965 64.1084C61.5966 62.5748 60.702 61.4691 60.2297 61.1079C63.7132 60.2002 66.2983 59.5532 69.1778 59.0941C67.6754 59.8036 66.8408 62.5996 66.5069 64.1084C66.1731 65.6171 62.0738 84.6545 61.9151 85.0332C61.6729 85.611 59.8582 86.7995 59.0573 87.3582C58.3385 87.8597 57.9901 88.0174 57.6553 88.0174C58.8499 80.7107 61.1965 65.642 61.3965 64.1084Z" fill="url(#paint10_linear_301_44)"/>
</g>
<path d="M57.1459 54.5235C54.5622 55.607 52.9786 57.6907 53.312 59.441C53.6453 61.1913 59.2962 62.5748 60.5631 62.7749C62.1467 63.0249 63.9803 63.4416 66.8141 61.2746C69.6479 59.1076 74.8987 57.0239 76.3156 56.1905C77.7325 55.357 77.3991 53.7734 76.899 52.94C76.399 52.1065 72.9818 51.5231 70.2313 51.1897C67.4809 50.8563 59.7296 53.44 57.1459 54.5235Z" fill="url(#paint11_diamond_301_44)"/>
<defs>
<filter id="filter0_i_301_44" x="57.6553" y="59.0941" width="11.5225" height="28.9233" filterUnits="userSpaceOnUse" color-interpolation-filters="sRGB">
<feFlood flood-opacity="0" result="BackgroundImageFix"/>
<feBlend mode="normal" in="SourceGraphic" in2="BackgroundImageFix" result="shape"/>
<feColorMatrix in="SourceAlpha" type="matrix" values="0 0 0 0 0 0 0 0 0 0 0 0 0 0 0 0 0 0 127 0" result="hardAlpha"/>
<feOffset dx="2" dy="-1"/>
<feComposite in2="hardAlpha" operator="arithmetic" k2="-1" k3="1"/>
<feColorMatrix type="matrix" values="0 0 0 0 0.00392157 0 0 0 0 0.0156863 0 0 0 0 0.0235294 0 0 0 1 0"/>
<feBlend mode="normal" in2="shape" result="effect1_innerShadow_301_44"/>
</filter>
<linearGradient id="paint0_linear_301_44" x1="17.973" y1="43.9385" x2="17.973" y2="61.4413" gradientUnits="userSpaceOnUse">
<stop stop-color="#060404"/>
<stop offset="1" stop-color="#2B2A2F"/>
</linearGradient>
<radialGradient id="paint1_diamond_301_44" cx="0" cy="0" r="1" gradientUnits="userSpaceOnUse" gradientTransform="translate(10.9719 39.5212) rotate(88.983) scale(14.0878 51.707)">
<stop offset="0.135417" stop-color="#949092"/>
<stop offset="0.353582" stop-color="#101217"/>
<stop offset="0.458162" stop-color="#3B404B"/>
<stop offset="0.587714" stop-color="#232324"/>
</radialGradient>
<radialGradient id="paint2_radial_301_44" cx="0" cy="0" r="1" gradientUnits="userSpaceOnUse" gradientTransform="translate(5.86986 101.286) rotate(-29.1829) scale(12.6669 7.93402)">
<stop offset="0.80702" stop-color="#2C2A27"/>
<stop offset="0.831208" stop-color="#7A7871"/>
<stop offset="0.863103" stop-color="#7A7871"/>
<stop offset="0.880645" stop-color="#0F0F0E"/>
<stop offset="0.951667" stop-color="#0F0F0E"/>
<stop offset="0.976171" stop-color="#7A7871"/>
<stop offset="1" stop-color="#7A7871"/>
</radialGradient>
<radialGradient id="paint3_radial_301_44" cx="0" cy="0" r="1" gradientUnits="userSpaceOnUse" gradientTransform="translate(27.6597 132.453) rotate(-135.16) scale(18.0229 11.2888)">
<stop offset="0.80702" stop-color="#2C2A27"/>
<stop offset="0.831208" stop-color="#7A7871"/>
<stop offset="0.863103" stop-color="#7A7871"/>
<stop offset="0.880645" stop-color="#0F0F0E"/>
<stop offset="0.951667" stop-color="#0F0F0E"/>
<stop offset="0.976171" stop-color="#7A7871"/>
<stop offset="1" stop-color="#7A7871"/>
</radialGradient>
<radialGradient id="paint4_radial_301_44" cx="0" cy="0" r="1" gradientUnits="userSpaceOnUse" gradientTransform="translate(71.5983 126.659) rotate(-160.966) scale(17.6585 15.2908)">
<stop offset="0.685236" stop-color="#2C2A27"/>
<stop offset="0.701332" stop-color="#7A7871"/>
<stop offset="0.741029" stop-color="#7A7871"/>
<stop offset="0.772592" stop-color="#0F0F0E"/>
<stop offset="0.885439" stop-color="#0F0F0E"/>
<stop offset="0.912663" stop-color="#7A7871"/>
<stop offset="0.948185" stop-color="#7A7871"/>
<stop offset="0.956234" stop-color="#2C2A27"/>
</radialGradient>
<radialGradient id="paint5_radial_301_44" cx="0" cy="0" r="1" gradientUnits="userSpaceOnUse" gradientTransform="translate(52.9658 96.1296) rotate(-4.3816) scale(13.7209 11.8812)">
<stop offset="0.685236" stop-color="#2C2A27"/>
<stop offset="0.701332" stop-color="#7A7871"/>
<stop offset="0.741029" stop-color="#7A7871"/>
<stop offset="0.772592" stop-color="#0F0F0E"/>
<stop offset="0.885439" stop-color="#0F0F0E"/>
<stop offset="0.912663" stop-color="#7A7871"/>
<stop offset="0.948185" stop-color="#7A7871"/>
<stop offset="0.956234" stop-color="#2C2A27"/>
</radialGradient>
<radialGradient id="paint6_radial_301_44" cx="0" cy="0" r="1" gradientUnits="userSpaceOnUse" gradientTransform="translate(38.5922 89.8625) rotate(89.2381) scale(41.4269 34.473)">
<stop offset="0.291667" stop-color="#0F0F12"/>
<stop offset="1" stop-color="#6B676C"/>
</radialGradient>
<radialGradient id="paint7_radial_301_44" cx="0" cy="0" r="1" gradientUnits="userSpaceOnUse" gradientTransform="translate(38.5922 89.8625) rotate(89.2381) scale(41.4269 34.4729)">
<stop stop-color="#0F0F12"/>
<stop offset="0.59375" stop-color="#5A575F"/>
<stop offset="1" stop-color="#A8A7AD"/>
</radialGradient>
<radialGradient id="paint8_radial_301_44" cx="0" cy="0" r="1" gradientUnits="userSpaceOnUse" gradientTransform="translate(44.5236 59.7869) rotate(-69.5529) scale(61.4669 47.5485)">
<stop offset="0.114669" stop-color="#550A0F"/>
<stop offset="0.572847" stop-color="#91292D"/>
<stop offset="1" stop-color="#CE4C58"/>
</radialGradient>
<radialGradient id="paint9_radial_301_44" cx="0" cy="0" r="1" gradientUnits="userSpaceOnUse" gradientTransform="translate(40.1957 48.3013) rotate(124.259) scale(51.1555 41.677)">
<stop offset="0.114669" stop-color="#550A0F"/>
<stop offset="0.572847" stop-color="#91292D"/>
<stop offset="0.817245" stop-color="#C03642"/>
<stop offset="1" stop-color="#842226"/>
</radialGradient>
<linearGradient id="paint10_linear_301_44" x1="64.7304" y1="56.1905" x2="63.4166" y2="88.0174" gradientUnits="userSpaceOnUse">
<stop offset="0.161458" stop-color="#101012"/>
<stop offset="0.523122" stop-color="#403E42"/>
<stop offset="1" stop-color="#3C3A3E"/>
</linearGradient>
<radialGradient id="paint11_diamond_301_44" cx="0" cy="0" r="1" gradientUnits="userSpaceOnUse" gradientTransform="translate(61.3966 51.1602) rotate(85.3478) scale(22.6075 55.4926)">
<stop stop-color="#949092"/>
<stop offset="0.353582" stop-color="#101217"/>
<stop offset="0.458162" stop-color="#3B404B"/>
<stop offset="0.506929" stop-color="#232324"/>
</radialGradient>
</defs>
</svg>
